<?xml version="1.0" encoding="utf-8"?>
<!-- Generator: Adobe Illustrator 18.1.1, SVG Export Plug-In . SVG Version: 6.00 Build 0)  -->
<svg version="1.1" id="Layer_1" xmlns="http://www.w3.org/2000/svg" xmlns:xlink="http://www.w3.org/1999/xlink" x="0px" y="0px"
	 viewBox="224 304 32 32" enable-background="new 224 304 32 32" xml:space="preserve">
<g>
	<g enable-background="new    ">
		<path fill="#FFFFFF" d="M248.4,324.9h0.7c0,8.8-6.2,11.1-11,11.1c-6,0-10.8-4-10.8-11.3v-16.1c0-2.9-1.4-3.9-3.4-3.9V304h12.7v0.7
			c-1.9,0-3.9,0.6-3.9,3.9V325c0,5.4,3.3,8.6,7.8,8.6C244.7,333.7,248.4,330.6,248.4,324.9z M242.7,304h12.6v0.7
			c-6.3,0-6.2,5.4-6.2,7.5h-0.7c0-2.1,0-7.5-5.7-7.5L242.7,304L242.7,304z"/>
	</g>
	<rect x="239.8" y="318.3" fill="#FFFFFF" width="16.2" height="0.9"/>
</g>
</svg>
