<?xml version="1.0" encoding="utf-8"?>
<!-- Generator: Adobe Illustrator 18.1.1, SVG Export Plug-In . SVG Version: 6.00 Build 0)  -->
<svg version="1.1" id="Layer_1" xmlns="http://www.w3.org/2000/svg" xmlns:xlink="http://www.w3.org/1999/xlink" x="0px" y="0px"
	 viewBox="-229 311 20 20" enable-background="new -229 311 20 20" xml:space="preserve">
<path fill="#FFFFFF" d="M-219,315.1c-1.8,0-3.3,1.5-3.4,3.4c0,0.5,0.4,0.9,0.9,0.9s0.9-0.4,0.9-0.9c0-0.9,0.7-1.6,1.6-1.6
	s1.6,0.7,1.6,1.6s-0.7,1.6-1.6,1.6c-0.5,0-0.9,0.4-0.9,0.9l0,0v2c0,0.5,0.4,0.9,0.8,0.9c0.5,0,0.9-0.4,0.9-0.8c0,0,0,0,0,0v-1.2
	l0.1-0.1c1.4-0.4,2.4-1.7,2.4-3.2C-215.7,316.7-217.2,315.2-219,315.1z M-219,325.1c-0.5,0-0.9,0.4-0.9,0.8c0,0.5,0.4,0.9,0.8,0.9
	c0,0,0,0,0,0c0.5,0,0.9-0.4,0.9-0.8C-218.1,325.5-218.5,325.2-219,325.1C-219,325.1-219,325.1-219,325.1z M-219,329.1
	c-4.5,0-8.1-3.7-8.1-8.1s3.7-8.1,8.1-8.1s8.1,3.7,8.1,8.1S-214.5,329.1-219,329.1z M-219,311.1c-5.4,0-9.9,4.4-9.9,9.9
	s4.4,9.9,9.9,9.9s9.9-4.4,9.9-9.9S-213.6,311.1-219,311.1z"/>
</svg>
