<?xml version="1.0" encoding="utf-8"?>
<!-- Generator: Adobe Illustrator 18.1.1, SVG Export Plug-In . SVG Version: 6.00 Build 0)  -->
<svg version="1.1" id="Layer_1" xmlns="http://www.w3.org/2000/svg" xmlns:xlink="http://www.w3.org/1999/xlink" x="0px" y="0px"
	 viewBox="-228 311 22 19" enable-background="new -228 311 22 19" xml:space="preserve">
<path fill="#2A2A2B" d="M-221.8,313.8c0.9,0,1.8,0.4,2.5,1l1.8,1.8c0.3,0.3,0.8,0.3,1.1,0l1.8-1.8c1.3-1.3,3.6-1.3,4.9,0
	c1.4,1.4,1.4,3.6,0,4.9l-7.2,7.2l-0.2-0.2l-7.1-7.1c-1.4-1.4-1.4-3.6,0-4.9C-223.6,314.1-222.7,313.7-221.8,313.8L-221.8,313.8z
	 M-217,328.8c0.2,0,0.4-0.1,0.5-0.2l7.8-7.8c1.9-1.9,1.9-5.1,0-7c-0.9-0.9-2.2-1.5-3.5-1.5c-1.3,0-2.6,0.5-3.5,1.5l-1.3,1.3
	l-0.2-0.2l-1.1-1.1c-0.9-0.9-2.2-1.5-3.5-1.5c-1.3,0-2.6,0.5-3.5,1.5c-1.9,1.9-1.9,5.1,0,7l7.8,7.8
	C-217.4,328.7-217.2,328.8-217,328.8z"/>
</svg>
