<?xml version="1.0" encoding="utf-8"?>
<!-- Generator: Adobe Illustrator 18.1.1, SVG Export Plug-In . SVG Version: 6.00 Build 0)  -->
<svg version="1.1" id="Layer_1" xmlns="http://www.w3.org/2000/svg" xmlns:xlink="http://www.w3.org/1999/xlink" x="0px" y="0px"
	 viewBox="-230 319 18 4" enable-background="new -230 319 18 4" xml:space="preserve">
<path fill="#2A2A2B" d="M-221,319.2c-1,0-1.8,0.8-1.8,1.8s0.8,1.8,1.8,1.8c1,0,1.8-0.8,1.8-1.8C-219.2,320-220,319.2-221,319.2z
	 M-214,319.2c-1,0-1.8,0.8-1.8,1.8c0,1,0.8,1.8,1.8,1.8c1,0,1.8-0.8,1.8-1.8C-212.2,320-213,319.2-214,319.2z M-228,319.2
	c-1,0-1.8,0.8-1.8,1.8s0.8,1.8,1.8,1.8c1,0,1.8-0.8,1.8-1.8C-226.2,320-227,319.2-228,319.2C-228,319.2-228,319.2-228,319.2z"/>
</svg>
