<?xml version="1.0" encoding="utf-8"?>
<!-- Generator: Adobe Illustrator 18.1.1, SVG Export Plug-In . SVG Version: 6.00 Build 0)  -->
<svg version="1.1" id="Layer_1" xmlns="http://www.w3.org/2000/svg" xmlns:xlink="http://www.w3.org/1999/xlink" x="0px" y="0px"
	 viewBox="-230 311 18 20" enable-background="new -230 311 18 20" xml:space="preserve">
<path fill="#FFFFFF" d="M-227.6,324.9l1.2-1.2c0.4-0.4,0.5-0.8,0.5-1.3v-4.7c0-1.4,0.6-2.7,1.7-3.7c1.1-0.9,2.5-1.4,3.9-1.2
	c2.4,0.3,4.2,2.5,4.2,5v4.5c0,0.5,0.2,1,0.5,1.3l1.4,1.4h-13.7L-227.6,324.9L-227.6,324.9z M-218.9,327.3c0,1-1,1.8-2.1,1.8
	c-1.2,0-2.1-0.8-2.1-1.8V327l0.1-0.1h4l0.1,0.1V327.3z M-212.6,324.3l-1.8-1.8l0-0.1v-4.5c0-3.4-2.4-6.3-5.7-6.7
	c-1.9-0.3-3.8,0.3-5.2,1.6c-1.4,1.2-2.2,3.1-2.2,4.9l0,4.7l0,0.1l-1.8,1.8c-0.4,0.4-0.6,1.1-0.3,1.6c0.2,0.6,0.8,0.9,1.4,0.9h3.4
	l0.1,0.1v0.3c0,1.9,1.7,3.5,3.9,3.5s3.9-1.6,3.9-3.5V327l0.1-0.1h3.4c0.6,0,1.1-0.4,1.4-0.9C-212,325.4-212.2,324.7-212.6,324.3z"/>
</svg>
