<?xml version="1.0" encoding="utf-8"?>
<!-- Generator: Adobe Illustrator 18.1.1, SVG Export Plug-In . SVG Version: 6.00 Build 0)  -->
<svg version="1.1" id="Layer_1" xmlns="http://www.w3.org/2000/svg" xmlns:xlink="http://www.w3.org/1999/xlink" x="0px" y="0px"
	 viewBox="-230 310 19 21" enable-background="new -230 310 19 21" xml:space="preserve">
<path fill="#FFFFFF" d="M-224.5,321.3h-1.2c-0.3,0-0.5-0.2-0.5-0.5s0.2-0.5,0.5-0.5h1.2c0.3,0,0.5,0.2,0.5,0.5
	S-224.2,321.3-224.5,321.3z M-223.3,318.3h-2.3c-0.3,0-0.5-0.2-0.5-0.5s0.2-0.5,0.5-0.5h2.3c0.3,0,0.5,0.2,0.5,0.5
	S-223.1,318.3-223.3,318.3z M-221,315.3h-4.7c-0.3,0-0.5-0.2-0.5-0.5s0.2-0.5,0.5-0.5h4.7c0.3,0,0.5,0.2,0.5,0.5
	S-220.7,315.3-221,315.3z"/>
<path fill="#FFFFFF" d="M-214.7,330.3l-9.5,0l-4.3,0c-0.5,0-0.7-0.2-0.7-0.7l0-18.2c0-0.5,0.2-0.7,0.7-0.7l9.5,0l1.7,0
	c0.3,0,0.5,0.1,0.6,0.4c0.1,0.3,0,0.5-0.2,0.7c-0.1,0.1-0.3,0.1-0.5,0.2c-0.2,0-1.5,0-3.1,0l-4.1,0l-3.5,0V329h12.8l0-11.1
	c0-0.4,0.3-0.6,0.6-0.6c0.4,0,0.6,0.3,0.6,0.6l0,1l0,10.6C-214,330.1-214.3,330.3-214.7,330.3z"/>
<g>
	<g>
		<path fill="#FFFFFF" d="M-221.7,321.1c-0.2,0-0.3-0.1-0.4-0.2c-0.1-0.1-0.2-0.3-0.1-0.6l0.2-0.7c0.2-0.5,0.3-0.9,0.5-1.4
			c0-0.1,0.1-0.2,0.2-0.3l7.1-7c0.3-0.3,0.7-0.3,1,0l1.3,1.2c0.2,0.2,0.2,0.3,0.2,0.5c0,0.2-0.1,0.3-0.2,0.5l-5.8,5.7
			c-0.4,0.4-0.9,0.9-1.3,1.3c-0.1,0.1-0.2,0.2-0.3,0.2c-0.5,0.2-0.9,0.3-1.4,0.5l-0.7,0.2C-221.6,321.1-221.6,321.1-221.7,321.1z
			 M-215.2,313.6l-0.6,0.6c-1.4,1.3-3.9,3.8-4.6,4.5c-0.1,0.1-0.1,0.1-0.1,0.2c-0.1,0.3-0.2,0.5-0.3,0.8l0.3-0.1
			c0.1,0,0.2-0.1,0.3-0.1c0.3-0.1,0.5-0.3,0.7-0.4c1.4-1.4,2.8-2.8,4.2-4.2h0c0.2-0.2,0.4-0.4,0.6-0.6l0.1-0.1L-215.2,313.6z
			 M-214.4,312.7l0.6,0.6l0.6-0.5l-0.5-0.6L-214.4,312.7z"/>
	</g>
</g>
</svg>
