<?xml version="1.0" encoding="utf-8"?>
<!-- Generator: Adobe Illustrator 18.1.1, SVG Export Plug-In . SVG Version: 6.00 Build 0)  -->
<svg version="1.1" id="Layer_1" xmlns="http://www.w3.org/2000/svg" xmlns:xlink="http://www.w3.org/1999/xlink" x="0px" y="0px"
	 viewBox="-233 315 12 12" enable-background="new -233 315 12 12" xml:space="preserve">
<g>
	<path d="M-222.8,326.2c-0.3,0-0.5-0.1-0.7-0.3l-3.5-3.5l-3.5,3.5c-0.4,0.4-1,0.4-1.4,0s-0.4-1,0-1.4l3.5-3.5l-3.5-3.5
		c-0.4-0.4-0.4-1,0-1.4s1-0.4,1.4,0l3.5,3.5l3.5-3.5c0.4-0.4,1-0.4,1.4,0s0.4,1,0,1.4l-3.5,3.5l3.5,3.5c0.4,0.4,0.4,1,0,1.4
		C-222.2,326.1-222.5,326.2-222.8,326.2z"/>
</g>
</svg>
