<svg xmlns="http://www.w3.org/2000/svg" width="20" height="19" viewBox="0 0 20 19">
    <defs>
        <path id="a" d="M10 7a1 1 0 1 1 0 2 1 1 0 0 1 0-2zm4 0a1 1 0 1 1 0 2 1 1 0 0 1 0-2zM6 7a1 1 0 1 1 0 2 1 1 0 0 1 0-2zm12 6c0 .551-.449 1-1 1H6.554c-.543 0-1.077.148-1.544.428L2 16.234V3c0-.551.449-1 1-1h14c.551 0 1 .449 1 1v10zM17 0H3C1.346 0 0 1.346 0 3v15a1 1 0 0 0 1.515.857l4.524-2.714A.997.997 0 0 1 6.554 16H17c1.654 0 3-1.346 3-3V3c0-1.654-1.346-3-3-3z"/>
    </defs>
    <path fill="none" fill-rule="evenodd" stroke="#EBEBEB" stroke-width=".2" d="M10 7.1a.9.9 0 1 0 0 1.8.9.9 0 0 0 0-1.8zm4 0a.9.9 0 1 0 0 1.8.9.9 0 0 0 0-1.8zm-8 0a.9.9 0 1 0 0 1.8.9.9 0 0 0 0-1.8zM18.1 13c0 .606-.494 1.1-1.1 1.1H6.554c-.525 0-1.041.143-1.493.414l-3.01 1.806-.151-.086V3c0-.606.494-1.1 1.1-1.1h14c.606 0 1.1.494 1.1 1.1v10zM17 .1H3A2.904 2.904 0 0 0 .1 3v15a.9.9 0 0 0 1.364.771l4.523-2.714c.172-.103.367-.157.567-.157H17c1.599 0 2.9-1.301 2.9-2.9V3c0-1.599-1.301-2.9-2.9-2.9z"/>
</svg>
