<?xml version="1.0" encoding="utf-8"?>
<!-- Generator: Adobe Illustrator 18.1.1, SVG Export Plug-In . SVG Version: 6.00 Build 0)  -->
<svg version="1.1" id="Layer_1" xmlns="http://www.w3.org/2000/svg" xmlns:xlink="http://www.w3.org/1999/xlink" x="0px" y="0px"
	 viewBox="0 76.4 480 487.1" enable-background="new 0 76.4 480 487.1" xml:space="preserve">
<g transform="translate(0 -122)">
	<path id="a" d="M175.4,549.6c-10.8,0-21.5-10.8-21.5-21.5V442c0-12.9,10.8-21.5,21.5-21.5c12.9,0,21.5,8.6,21.5,21.5v86.1
		C197,538.9,188.3,549.6,175.4,549.6z M304.6,549.6c-10.8,0-21.5-10.8-21.5-21.5V442c0-12.9,10.8-21.5,21.5-21.5
		c12.9,0,21.5,8.6,21.5,21.5v86.1C326.1,538.9,317.5,549.6,304.6,549.6z M369.1,592.7c0,12.9-8.6,21.5-21.5,21.5H132.4
		c-12.9,0-21.5-8.6-21.5-21.5V355.9h258.3V592.7z M197,276.3c0-4.3,4.3-6.5,10.8-6.5h64.6c6.5,0,10.8,4.3,10.8,6.5v36.6H197V276.3z
		 M433.7,312.9H326.1v-36.6c0-28-23.7-49.5-53.8-49.5h-64.6c-30.1,0-53.8,21.5-53.8,49.5v36.6H46.3c-10.8,0-21.5,8.6-21.5,21.5
		c0,10.8,10.8,21.5,21.5,21.5h21.5v236.8c0,36.6,28,64.6,64.6,64.6h215.2c36.6,0,64.6-28,64.6-64.6V355.9h21.5
		c12.9,0,21.5-10.8,21.5-21.5C455.2,321.5,446.6,312.9,433.7,312.9z"/>
</g>
</svg>
