<?xml version="1.0" encoding="utf-8"?>
<!-- Generator: Adobe Illustrator 18.1.1, SVG Export Plug-In . SVG Version: 6.00 Build 0)  -->
<svg version="1.1" id="Layer_1" xmlns="http://www.w3.org/2000/svg" xmlns:xlink="http://www.w3.org/1999/xlink" x="0px" y="0px"
	 viewBox="-232.8 311.2 19.5 19.5" enable-background="new -232.8 311.2 19.5 19.5" xml:space="preserve">
<path d="M-219,319.7l-2.7-2.7l1.9-2l2.7,2.7C-217,317.7-219,319.7-219,319.7z M-225.9,326.6l-3,0.3l0.3-3l5.6-5.6l2.7,2.7
	L-225.9,326.6L-225.9,326.6z M-215.6,316.3l-2.7-2.7c-0.7-0.7-2-0.8-2.7-0.1l-9,9c-0.3,0.3-0.5,0.8-0.6,1.2l-0.4,4.2
	c0,0.6,0.4,1,0.9,1.1c0.1,0,0.1,0,0.2,0l4.2-0.4c0.5,0,0.9-0.2,1.2-0.6l9-9C-214.8,318.3-214.8,317.1-215.6,316.3z"/>
</svg>
