<svg xmlns="http://www.w3.org/2000/svg" width="20" height="20" viewBox="0 0 20 20">
    <defs>
        <path id="a" d="M297 15c1.93 0 3.5 1.57 3.5 3.5 0 1.58-1.06 2.903-2.5 3.337V23a1 1 0 1 1-2 0v-2a1 1 0 0 1 1-1c.827 0 1.5-.673 1.5-1.5s-.673-1.5-1.5-1.5-1.5.673-1.5 1.5a1 1 0 1 1-2 0c0-1.93 1.57-3.5 3.5-3.5zm0 10a1 1 0 1 1 0 2 1 1 0 1 1 0-2zm0 4c-4.411 0-8-3.589-8-8s3.589-8 8-8 8 3.589 8 8-3.589 8-8 8m0-18c-5.514 0-10 4.486-10 10s4.486 10 10 10 10-4.486 10-10-4.486-10-10-10"/>
    </defs>
    <path fill="none" fill-rule="evenodd" stroke="#2A2A2B" stroke-width=".3" d="M10 4.15A3.354 3.354 0 0 0 6.65 7.5a.85.85 0 1 0 1.7 0c0-.91.74-1.65 1.65-1.65.91 0 1.65.74 1.65 1.65 0 .91-.74 1.65-1.65 1.65a.85.85 0 0 0-.85.85v2a.85.85 0 1 0 1.7 0v-1.163l.107-.144A3.344 3.344 0 0 0 13.35 7.5 3.354 3.354 0 0 0 10 4.15zm0 10a.85.85 0 1 0 0 1.7.85.85 0 1 0 0-1.7zm0 4c-4.494 0-8.15-3.656-8.15-8.15S5.506 1.85 10 1.85s8.15 3.656 8.15 8.15-3.656 8.15-8.15 8.15zm0-18C4.569.15.15 4.569.15 10s4.419 9.85 9.85 9.85 9.85-4.419 9.85-9.85S15.431.15 10 .15z"/>
</svg>
