<?xml version="1.0" encoding="utf-8"?>
<!-- Generator: Adobe Illustrator 18.1.1, SVG Export Plug-In . SVG Version: 6.00 Build 0)  -->
<svg version="1.1" id="Layer_1" xmlns="http://www.w3.org/2000/svg" xmlns:xlink="http://www.w3.org/1999/xlink" x="0px" y="0px"
	 viewBox="-229 311 20 19" enable-background="new -229 311 20 19" xml:space="preserve">
<g>
	<path fill="#FFFFFF" stroke="#2A2A2B" stroke-width="1.5" stroke-miterlimit="10" d="M-212,312.4h-14c-1.1,0-2,0.9-2,2
		c0,0,0,12.9,0,13.4s0.4,0.9,0.9,0.9c0.2,0,0.3,0,0.5-0.1l3.2-1.9c0.3-0.2,0.7-0.3,1-0.3h10.4c1.1,0,2-0.9,2-2v-10
		C-210,313.3-210.9,312.4-212,312.4z M-222.9,319.6c-0.1,0-0.2-0.1-0.2-0.2c0-0.1,0.1-0.2,0.2-0.2c0.1,0,0.2,0.1,0.2,0.2
		C-222.7,319.5-222.8,319.6-222.9,319.6z M-218.9,319.6c-0.1,0-0.2-0.1-0.2-0.2c0-0.1,0.1-0.2,0.2-0.2c0.1,0,0.2,0.1,0.2,0.2
		C-218.7,319.5-218.8,319.6-218.9,319.6z M-214.9,319.6c-0.1,0-0.2-0.1-0.2-0.2c0-0.1,0.1-0.2,0.2-0.2c0.1,0,0.2,0.1,0.2,0.2
		C-214.7,319.5-214.8,319.6-214.9,319.6z"/>
</g>
</svg>
