<?xml version="1.0" encoding="utf-8"?>
<!-- Generator: Adobe Illustrator 18.1.1, SVG Export Plug-In . SVG Version: 6.00 Build 0)  -->
<svg version="1.1" id="Layer_1" xmlns="http://www.w3.org/2000/svg" xmlns:xlink="http://www.w3.org/1999/xlink" x="0px" y="0px"
	 viewBox="-24 68.3 528 541.4" enable-background="new -24 68.3 528 541.4" xml:space="preserve">
<g>
	<path d="M328,97H152C68,97,4,165,4,249v180c0,84,68,152,148,152h176c80,0,148-68,148-152V249C476,165,408,97,328,97z M432,425
		c0,56-48,104-104,104H152c-56,0-104-48-104-104V245c0-56,48-104,104-104h180c56,0,100,48,100,104V425z"/>
	<path d="M236,217c-64,0-120,52-120,120s52,120,120,120c64,0,120-52,120-120S304,217,236,217z M236,413c-40,0-76-32-76-76
		c0-40,32-76,76-76s76,32,76,76C312,377,280,413,236,413z"/>
	<circle cx="364" cy="209" r="40"/>
</g>
</svg>
