<svg xmlns="http://www.w3.org/2000/svg" width="22" height="19" viewBox="0 0 22 19">
    <defs>
        <path id="a" d="M5.222 2c-.864 0-1.674.334-2.28.941a3.241 3.241 0 0 0 .001 4.573l7.059 7.071 7.06-7.071a3.24 3.24 0 0 0 0-4.573c-1.212-1.215-3.348-1.213-4.56 0L10.71 4.736a1.028 1.028 0 0 1-1.416 0L7.502 2.94A3.2 3.2 0 0 0 5.222 2m4.78 15a.994.994 0 0 1-.707-.294l-7.768-7.78a5.245 5.245 0 0 1 0-7.399A5.19 5.19 0 0 1 5.222 0c1.399 0 2.712.543 3.695 1.527l1.085 1.087 1.085-1.086A5.187 5.187 0 0 1 14.783 0c1.398 0 2.711.543 3.694 1.527a5.244 5.244 0 0 1 .001 7.399l-7.768 7.781a1 1 0 0 1-.708.293"/>
    </defs>
    <path fill="none" fill-rule="evenodd" stroke="#EBEBEB" stroke-width=".5" d="M6.222 2.75c.93 0 1.804.36 2.457 1.013l1.792 1.796c.278.28.784.28 1.062 0l1.792-1.795c1.31-1.311 3.605-1.312 4.914 0a3.49 3.49 0 0 1 0 4.927l-7.237 7.248-.177-.177L3.766 8.69a3.491 3.491 0 0 1 0-4.927A3.449 3.449 0 0 1 6.221 2.75zm4.78 15c.2 0 .39-.079.531-.22l7.768-7.78a4.994 4.994 0 0 0 0-7.046 4.937 4.937 0 0 0-3.518-1.454 4.937 4.937 0 0 0-3.52 1.455l-1.261 1.263-.177-.177L9.74 2.704A4.938 4.938 0 0 0 6.222 1.25a4.94 4.94 0 0 0-3.518 1.454 4.995 4.995 0 0 0 0 7.045l7.769 7.781c.139.14.33.22.529.22z"/>
</svg>
