<?xml version="1.0" encoding="utf-8"?>
<!-- Generator: Adobe Illustrator 18.1.1, SVG Export Plug-In . SVG Version: 6.00 Build 0)  -->
<svg version="1.1" id="Layer_1" xmlns="http://www.w3.org/2000/svg" xmlns:xlink="http://www.w3.org/1999/xlink" x="0px" y="0px"
	 viewBox="65 304 350 32" enable-background="new 65 304 350 32" xml:space="preserve">
<g>
	<path fill="#2A2A2B" d="M89.8,324.9h0.8c0,9.5-7.1,11.1-11,11.1c-6,0-11-4.1-11-11.3V309c0-2.7-1.6-3.9-3.6-3.9v-0.8h14.1v0.8
		c-1.9,0-4.1,0.7-4.1,3.9v16c0,5.2,3.2,8.3,7.5,8.3C85.9,333.3,89.8,330.5,89.8,324.9z M83.8,304.4h13.4v0.8c-6.7,0-6.6,6.7-6.6,6.7
		h-0.8c0,0,0.1-6.7-6-6.7V304.4z"/>
	<path fill="#2A2A2B" d="M121.6,304.4l18.7,23v8.3H138L116,308.3c-2.8-3.6-4.1-3.1-5.3-3.2v-0.8H121.6z M124.6,334.8v0.8h-13.5v-0.8
		c6.7,0,6.7-10.6,6.7-10.6h0.8C118.5,324.3,118.5,334.8,124.6,334.8z M133.5,304.4h13.5v0.8c-6.7,0-6.6,10.5-6.6,10.5h-0.8
		c0,0,0-10.6-6.1-10.5V304.4z"/>
	<path fill="#2A2A2B" d="M183.6,332.4c0,0-1.8,3.2-7.9,3.6v-0.8c3.6-1.1,4.3-6.8-0.6-10.3l-6.8-4.3c-6.3-4-8.7-8.4-5-13.2
		c0,0,1.9-2.9,7.8-3.3v0.8c-3.6,1-4.5,6.2,0.7,9.6l6.8,4.5C184.5,322.7,186.9,327.5,183.6,332.4z M172.9,335.2v0.8
		c-7.6-0.3-10.8-2.7-10.8-2.7v-8.5h0.8C163.9,327.3,166.1,334.3,172.9,335.2z M173.9,304.8V304c6.7,0.2,10,2.1,10,2.1v7.5h-0.8
		C182.4,311.4,180,305.6,173.9,304.8z"/>
	<path fill="#2A2A2B" d="M210.7,329.5c0,5,3.3,5.3,5.2,5.3v0.8h-14.6v-0.8c1.9,0,2.9-2.3,2.9-5.3v-19.3c0-2.8-1.2-5.1-3.2-5.1v-0.8
		h9.6V329.5z M213.5,305.1v-0.8c8.2,0.2,14,1.9,14,9s-5.7,8.8-14,9v-0.8c3.8-0.1,6.7-1.1,6.7-8.2
		C220.2,306.1,217.3,305.2,213.5,305.1z"/>
	<path fill="#2A2A2B" d="M257,335.2v0.8c-8.8-0.7-13.9-7.4-13.9-15.8c0-8.3,5-15.4,13.9-16.2v0.8c-4.3,0.6-6.3,4.3-6.3,15.4
		C250.8,331.3,252.8,334.6,257,335.2z M259.8,336v-0.8c4.3-0.5,6.3-3.9,6.3-15c0-11.1-2-14.8-6.3-15.4V304c8.9,0.7,14,7.8,14,16.2
		C273.9,328.6,268.8,335.3,259.8,336z"/>
	<path fill="#2A2A2B" d="M303.2,304.4v0.8c-2,0-3.8,0.7-3.8,4v21.1c0,3,1.4,4.7,3.3,4.7v0.8h-12.9v-0.8c1.9,0,3.2-1.7,3.2-4.7v-21.1
		c0-2.8-1.2-4-3.2-4v-0.8H303.2z M323.9,334.8v0.8h-7c-4.7,0-5.8-1.3-10.4-8c-2.6-3.6-4.5-6.2-4.5-6.2l6.1-7.4c0,0,7.6-8.7-0.3-8.9
		v-0.8h14.7v0.8c-3,0-6.1,0.1-15.7,12.4c10.4,13.9,10.8,14.5,10.8,14.5C319.8,334.8,322.7,334.8,323.9,334.8z"/>
	<path fill="#2A2A2B" d="M347.2,335.6h-9v-0.8c1.9,0,2.6-2.3,2.6-5.3v-19c0-2.8-0.6-5.4-2.6-5.4v-0.8h9V335.6z M349.9,305.2v-0.8
		h12.7v8.4h-0.8C361,306.6,353,305.4,349.9,305.2z M356,314.8h0.8v10H356c-0.6-3.5-4-4.3-6-4.5v-0.9
		C351.9,319.1,355.3,318.3,356,314.8z M363.2,335.6h-13.2v-0.8c3-0.3,11-1.7,12.5-8.9h0.8V335.6z"/>
	<path fill="#2A2A2B" d="M389.7,304.4l18.7,23v8.3H406l-21.9-27.3c-2.8-3.6-4.1-3.1-5.3-3.2v-0.8H389.7z M392.7,334.8v0.8h-13.5
		v-0.8c6.7,0,6.7-10.6,6.7-10.6h0.8C386.6,324.3,386.5,334.8,392.7,334.8z M401.5,304.4H415v0.8c-6.7,0-6.6,10.5-6.6,10.5h-0.8
		c0,0,0-10.6-6.1-10.5V304.4z"/>
</g>
</svg>
