<?xml version="1.0" encoding="utf-8"?>
<!-- Generator: Adobe Illustrator 18.1.1, SVG Export Plug-In . SVG Version: 6.00 Build 0)  -->
<svg version="1.1" id="Layer_1" xmlns="http://www.w3.org/2000/svg" xmlns:xlink="http://www.w3.org/1999/xlink" x="0px" y="0px"
	 viewBox="-226 311 26 19" enable-background="new -226 311 26 19" xml:space="preserve">
<g>
	<path d="M-202.5,329.6c-0.5,0-0.8-0.2-1.1-0.5l-1.5-1.2h-9c-2,0-3.7-1.7-3.7-3.6v-3.8c0-2,1.7-3.6,3.7-3.6h9.7c2,0,3.7,1.7,3.7,3.6
		v7.4C-200.9,328.9-201.6,329.6-202.5,329.6L-202.5,329.6z M-214.1,318.3c-1.3,0-2.1,1.1-2.1,2.3v3.8c0,1.2,1,2.1,2.1,2.1h9.2
		c0.2,0,0.3,0,0.5,0.2l1.8,1.5c0,0,0.2,0,0.2-0.2v-7.6c0-1.2-1-2.1-2.1-2.1C-204.4,318.3-214.1,318.3-214.1,318.3z"/>
	<path d="M-213.2,323.4c-0.2,0-0.5,0-0.6-0.2c-0.2-0.2-0.2-0.3-0.2-0.6c0-0.2,0-0.5,0.2-0.5c0.3-0.3,0.8-0.3,1.1,0
		c0.2,0.2,0.2,0.3,0.2,0.5s0,0.5-0.2,0.6C-212.7,323.2-213,323.4-213.2,323.4z M-209.3,323.4c-0.2,0-0.5,0-0.6-0.2
		c-0.2-0.2-0.3-0.3-0.3-0.6c0-0.2,0.2-0.5,0.3-0.5c0.3-0.3,0.8-0.3,1.1,0c0.2,0.2,0.2,0.3,0.2,0.5s-0.2,0.5-0.2,0.6
		C-208.9,323.2-209.1,323.4-209.3,323.4L-209.3,323.4z M-205.5,323.4c-0.2,0-0.5,0-0.6-0.2c-0.2-0.2-0.3-0.3-0.3-0.6
		c0-0.2,0.2-0.5,0.3-0.5c0.3-0.3,0.8-0.3,1.1,0c0.2,0.2,0.3,0.3,0.3,0.6c0,0.2-0.2,0.5-0.2,0.6C-205,323.2-205.3,323.4-205.5,323.4z
		"/>
	<g>
		<path d="M-213.2,317.7c-0.2,0-0.5,0-0.5-0.2c-0.2-0.2-0.3-0.3-0.3-0.6c0-0.2,0.2-0.5,0.3-0.6c0.3-0.3,0.8-0.3,1.1,0
			c0.2,0.2,0.3,0.3,0.3,0.6c0,0.2-0.2,0.5-0.3,0.6C-212.8,317.6-213,317.7-213.2,317.7z M-217,317.7c-0.2,0-0.5,0-0.6-0.2
			c-0.2-0.3-0.2-0.5-0.2-0.6c0-0.2,0-0.5,0.2-0.6c0.3-0.3,0.8-0.3,1.1,0c0.2,0.2,0.3,0.3,0.3,0.6c0,0.2-0.2,0.5-0.3,0.6
			C-216.6,317.6-216.9,317.7-217,317.7z M-220.9,317.7c-0.2,0-0.5,0-0.6-0.2c-0.2-0.2-0.2-0.3-0.2-0.6c0-0.2,0-0.5,0.2-0.6
			c0.3-0.3,0.8-0.3,1.1,0c0.2,0.2,0.3,0.3,0.3,0.6c0,0.2-0.2,0.5-0.3,0.6C-220.4,317.6-220.7,317.7-220.9,317.7z"/>
		<path d="M-217,322.3h-4.1l-1.5,1.2c-0.3,0.3-0.8,0.5-1.1,0.5c-0.3,0-0.5,0-0.8-0.2c-0.6-0.3-1.1-1-1.1-1.5v-7.5
			c0-2,1.7-3.6,3.7-3.6h9.7c2,0,3.7,1.7,3.7,3.6v2.8h-1.5v-2.8c0-1.2-1-2.1-2.1-2.1h-9.7c-1.3,0-2.1,1-2.1,2.1v7.4
			c0,0.2,0,0.2,0.2,0.2h0.2l1.7-1.5c0.2-0.2,0.3-0.2,0.5-0.2h4.4C-217,320.7-217,322.3-217,322.3z"/>
	</g>
</g>
</svg>
