<svg xmlns="http://www.w3.org/2000/svg" width="18" height="4" viewBox="0 0 18 4">
    <defs>
        <path id="a" d="M279 10a2 2 0 1 1-.001 4.001A2 2 0 0 1 279 10zm7 0a2 2 0 1 1-.001 4.001A2 2 0 0 1 286 10zm-14 0a2 2 0 1 1-.001 4.001A2 2 0 0 1 272 10z"/>
    </defs>
    <path fill="none" fill-rule="evenodd" stroke="#EBEBEB" stroke-width=".5" d="M9 .25a1.75 1.75 0 1 0 .001 3.501A1.75 1.75 0 0 0 9 .25zm7 0a1.75 1.75 0 1 0 .001 3.501A1.75 1.75 0 0 0 16 .25zm-14 0a1.75 1.75 0 1 0 .001 3.501A1.75 1.75 0 0 0 2 .25z"/>
</svg>
