<svg xmlns="http://www.w3.org/2000/svg" width="18" height="20" viewBox="0 0 18 20">
    <path fill="#2A2A2B" fill-rule="nonzero" d="M17.707 17.293l-1.3-1.3L14.414 14 4.886 4.47 3.42 3.005 1.707 1.292A.999.999 0 1 0 .293 2.706l2.238 2.24 1.752 1.75L11.586 14l.069.069L13 15.414l.586.586 2.707 2.707a.997.997 0 0 0 1.414 0 .999.999 0 0 0 0-1.414zM11 16.34V16H7v.34c0 .9.916 1.66 2 1.66s2-.76 2-1.66zM12.172 16l.779.78C12.71 18.589 11.042 20 9 20c-2.207 0-4-1.641-4-3.66V16H1.636a1.632 1.632 0 0 1-1.512-1.01 1.633 1.633 0 0 1 .353-1.782l1.801-1.804.001-4.678c0-.197.015-.392.031-.587l1.97 1.968v3.297c0 .534-.209 1.036-.587 1.414L2.515 14h7.657l.857.857L12.172 16zM5.468 3.64L4.035 2.205A6.719 6.719 0 0 1 9.9.059c3.319.439 5.82 3.396 5.82 6.877v4.468l1.8 1.804a1.63 1.63 0 0 1 .354 1.783 1.62 1.62 0 0 1-.453.6l-3.605-3.604a2.027 2.027 0 0 1-.095-.583V6.936c0-2.482-1.755-4.586-4.082-4.895A4.664 4.664 0 0 0 5.9 3.17c-.162.142-.293.31-.432.47z"/>
</svg>
