<?xml version="1.0" encoding="utf-8"?>
<!-- Generator: Adobe Illustrator 18.1.1, SVG Export Plug-In . SVG Version: 6.00 Build 0)  -->
<svg version="1.1" id="Layer_1" xmlns="http://www.w3.org/2000/svg" xmlns:xlink="http://www.w3.org/1999/xlink" x="0px" y="0px"
	 viewBox="-231 311 16 20" enable-background="new -231 311 16 20" xml:space="preserve">
<path fill="none" stroke="#2A2A2B" stroke-width="0.3" d="M-216.2,329c0-3.7-3-6.7-6.8-6.8c-3.7,0-6.7,3-6.8,6.8
	c0,0.4,0.3,0.8,0.8,0.8s0.8-0.3,0.8-0.8c0-2.9,2.4-5.2,5.2-5.2c2.9,0,5.2,2.4,5.2,5.2c0,0.4,0.3,0.8,0.8,0.8S-216.2,329.4-216.2,329
	z M-223,313.8c1.2,0,2.2,1,2.2,2.2c0,1.2-1,2.2-2.2,2.2c-1.2,0-2.2-1-2.2-2.2C-225.2,314.8-224.2,313.8-223,313.8z M-223,319.8
	c2.1,0,3.7-1.7,3.8-3.8c0-2.1-1.7-3.7-3.8-3.8c-2.1,0-3.7,1.7-3.8,3.8C-226.7,318.1-225.1,319.7-223,319.8z"/>
</svg>
