<?xml version="1.0" encoding="utf-8"?>
<!-- Generator: Adobe Illustrator 18.1.1, SVG Export Plug-In . SVG Version: 6.00 Build 0)  -->
<svg version="1.1" id="Layer_1" xmlns="http://www.w3.org/2000/svg" xmlns:xlink="http://www.w3.org/1999/xlink" x="0px" y="0px"
	 viewBox="14 105 452 430" enable-background="new 14 105 452 430" xml:space="preserve">
<path d="M102.2,167.5c12.5,0,22.5-10,22.5-22.5s-10-22.5-22.5-22.5h-50c-12.5,0-22.5,10-22.5,22.5v350c0,12.5,10,22.5,22.5,22.5h50
	c12.5,0,22.5-10,22.5-22.5c0-12.5-10-22.5-22.5-22.5h-25l-2.5-2.5V170l2.5-2.5H102.2z M444.7,307.5l-70-100c-7.5-10-20-12.5-32.5-5
	c-10,7.5-12.5,20-5,32.5l42.5,60l-2.5,5c0,0,0,0-2.5,0l0,0l0,0h-200c-12.5,0-22.5,10-22.5,22.5s10,22.5,22.5,22.5h200l2.5,5l-45,60
	c-7.5,10-5,25,5,32.5s25,5,32.5-5l0,0l75-100C452.2,325,452.2,315,444.7,307.5z"/>
</svg>
