<svg xmlns="http://www.w3.org/2000/svg" width="20" height="20" viewBox="0 0 20 20">
    <defs>
        <path id="a" d="M15 217c0-3.309 2.69-6 6-6 3.309 0 6 2.691 6 6s-2.691 6-6 6c-3.31 0-6-2.691-6-6m15.707 8.293l-3.395-3.396A7.952 7.952 0 0 0 29 217c0-4.411-3.59-8-8-8-4.411 0-8 3.589-8 8s3.589 8 8 8a7.952 7.952 0 0 0 4.897-1.688l3.396 3.395a.997.997 0 0 0 1.414 0 .999.999 0 0 0 0-1.414"/>
    </defs>
    <path fill="none" fill-rule="evenodd" stroke="#A4AFB5" stroke-width=".5" d="M2.75 9A6.256 6.256 0 0 1 9 2.75 6.256 6.256 0 0 1 15.25 9 6.256 6.256 0 0 1 9 15.25 6.256 6.256 0 0 1 2.75 9zm15.78 8.47l-3.551-3.552.135-.174A7.7 7.7 0 0 0 16.75 9c0-4.273-3.477-7.75-7.75-7.75S1.25 4.727 1.25 9 4.727 16.75 9 16.75a7.7 7.7 0 0 0 4.743-1.635l.175-.136.156.156 3.396 3.395a.747.747 0 0 0 1.06 0 .749.749 0 0 0 0-1.06z"/>
</svg>
