<?xml version="1.0" encoding="utf-8"?>
<!-- Generator: Adobe Illustrator 18.1.1, SVG Export Plug-In . SVG Version: 6.00 Build 0)  -->
<svg version="1.1" id="Layer_1" xmlns="http://www.w3.org/2000/svg" xmlns:xlink="http://www.w3.org/1999/xlink" x="0px" y="0px"
	 viewBox="-229.5 310.5 20.9 20.9" enable-background="new -229.5 310.5 20.9 20.9" xml:space="preserve">
<path d="M-216,327.3l-2-6l0-0.2l6-6L-216,327.3L-216,327.3z M-213.1,313.9l-6,6l-0.2,0l-6-2C-225.3,318-213.1,313.9-213.1,313.9z
	 M-209.2,312L-209.2,312c0-0.1,0-0.2-0.1-0.3c0-0.1-0.1-0.2-0.2-0.2c-0.1-0.1-0.2-0.2-0.3-0.2c-0.1,0-0.2,0-0.2,0l0,0h0l0,0
	c-0.1,0-0.2,0-0.3,0l-18,6c-0.4,0.1-0.7,0.6-0.5,1.1c0.1,0.3,0.3,0.5,0.5,0.5l8.5,2.8l0.1,0.1l2.8,8.5c0.1,0.4,0.6,0.7,1.1,0.5
	c0.3-0.1,0.5-0.3,0.5-0.5l6-18C-209.2,312.2-209.2,312.1-209.2,312L-209.2,312L-209.2,312C-209.2,312-209.2,312-209.2,312z"/>
</svg>
