<svg xmlns="http://www.w3.org/2000/svg" xmlns:xlink="http://www.w3.org/1999/xlink" width="19" height="18" viewBox="0 0 19 18">
    <defs>
        <path id="a" d="M17 16a1 1 0 1 1 0-2 1 1 0 0 1 0 2M4 10a1 1 0 1 1 0-2 1 1 0 0 1 0 2m13-8a1 1 0 1 1 0 2 1 1 0 0 1 0-2m0 10c-.817 0-1.557.33-2.099.861L6.966 9.335C6.979 9.224 7 9.114 7 9c0-.114-.021-.224-.034-.335l7.935-3.526A2.991 2.991 0 0 0 17 6c1.654 0 3-1.346 3-3s-1.346-3-3-3-3 1.346-3 3c0 .114.021.224.034.335L6.099 6.861A2.991 2.991 0 0 0 4 6C2.346 6 1 7.346 1 9s1.346 3 3 3c.817 0 1.557-.33 2.099-.861l7.935 3.526c-.013.111-.034.221-.034.335 0 1.654 1.346 3 3 3s3-1.346 3-3-1.346-3-3-3"/>
    </defs>
    <use fill="#2A2A2B" fill-rule="nonzero" transform="translate(-1)" xlink:href="#a"/>
</svg>
