<?xml version="1.0" encoding="utf-8"?>
<!-- Generator: Adobe Illustrator 18.1.1, SVG Export Plug-In . SVG Version: 6.00 Build 0)  -->
<svg version="1.1" id="Layer_1" xmlns="http://www.w3.org/2000/svg" xmlns:xlink="http://www.w3.org/1999/xlink" x="0px" y="0px"
	 viewBox="0 111 480 427" enable-background="new 0 111 480 427" xml:space="preserve">
<path d="M412,194c20-12,32-32,40-52c-16,12-36,20-60,24c-16-20-40-32-68-32c-52,0-92,44-92,96c0,8,0,16,4,20c-76-4-144-44-192-100
	c-8,16-12,32-12,48c0,32,16,64,40,80c-16,0-28-4-40-12c0,48,32,84,72,96c-8,4-16,4-24,4c-4,0-12,0-16,0c12,40,44,68,88,68
	c-40,32-88,44-136,40c40,28,92,44,140,44c168,0,264-148,264-276c0-4,0-8,0-12c16-16,32-36,44-52C448,186,428,190,412,194z"/>
</svg>
