<svg xmlns="http://www.w3.org/2000/svg" width="19" height="21" viewBox="0 0 19 21">
    <g fill="#FFF" fill-rule="evenodd" stroke="#FFF">
        <path stroke-width=".6" d="M15.361 7.576c-.186 0-.32.135-.33.339v.125l-.001 2.68v8.431c0 .056-.005.111-.008.177H1.652v-1.043-16.62h.187l3.607-.001c2.41 0 6.713.004 7.144-.005a.477.477 0 0 0 .269-.086c.114-.09.144-.225.085-.367-.06-.148-.176-.206-.33-.206-1.151.003-.923.006-2.074.005l-9.109-.003c-.33 0-.421.093-.43.423-.002.052 0 .105 0 .157v.766L1 18.285v1.284c0 .326.106.431.424.43 1.439 0 2.877-.003 4.316-.003 3.18 0 6.36.003 9.54.004.297 0 .4-.105.401-.402v-.626-9.42c0-.643.002-.987 0-1.63-.001-.204-.135-.345-.32-.346z"/>
        <path stroke-linecap="round" d="M4.313 4.76H9M4.333 7.76h2.323M4.25 10.76h1.245"/>
        <path stroke-width=".5" d="M16.197 3.64l-.911-.94.961-.855.892.937-.942.857m-1.35 1.396a803.139 803.139 0 0 0-4.202 4.156c-.24.24-.49.44-.833.516-.117.026-.23.075-.344.113l-.648.21c.144-.435.27-.839.413-1.237a.845.845 0 0 1 .19-.307c.889-.886 4.624-4.57 5.336-5.273l.99 1.002c-.289.262-.607.53-.902.82m2.984-2.613c-.436-.414-.873-.828-1.308-1.243-.25-.239-.414-.239-.657.001L9.27 7.695l.002.002-.494.49a.483.483 0 0 0-.115.18c-.23.682-.454 1.367-.681 2.051-.046.137-.042.263.07.369.115.11.251.11.396.062.687-.23 1.375-.456 2.06-.69a.647.647 0 0 0 .237-.143c.616-.602 1.227-1.208 1.84-1.813l5.255-5.192c.217-.214.213-.38-.009-.589"/>
    </g>
</svg>
